<svg xmlns="http://www.w3.org/2000/svg" width="1600" height="800" viewBox="0 0 1600 800" role="img">
    <defs>
    <linearGradient id="bg" x1="0" y1="0" x2="1" y2="1"><stop stop-color="#F7FAF5"/><stop offset="1" stop-color="#E7F0E6"/></linearGradient>
    <linearGradient id="card" x1="0" y1="0" x2="0" y2="1"><stop stop-color="#FFFFFF"/><stop offset="1" stop-color="#F7FAF7"/></linearGradient>
    <filter id="shadow" x="-20%" y="-20%" width="140%" height="150%"><feDropShadow dx="0" dy="18" stdDeviation="18" flood-color="#183126" flood-opacity=".12"/></filter>
    <filter id="soft" x="-20%" y="-20%" width="140%" height="140%"><feGaussianBlur stdDeviation="16"/></filter>
    </defs><rect width="1600" height="800" rx="48" fill="url(#bg)"/><g filter="url(#shadow)"><rect x="171.8" y="220" width="106.4" height="48" rx="12" fill="#294739"/><rect x="130" y="258" width="190" height="312" rx="34" fill="#FFFFFF" stroke="#C9D8CC" stroke-width="3"/><rect x="152" y="332" width="146" height="90" rx="18" fill="#D9EDF2"/><rect x="170" y="356" width="110" height="10" rx="5" fill="#789C81"/><rect x="164" y="378" width="122" height="8" rx="4" fill="#9BB4A0"/></g><g filter="url(#shadow)"><rect x="1321.8" y="220" width="106.4" height="48" rx="12" fill="#294739"/><rect x="1280" y="258" width="190" height="312" rx="34" fill="#FFFFFF" stroke="#C9D8CC" stroke-width="3"/><rect x="1302" y="332" width="146" height="90" rx="18" fill="#F1D6A5"/><rect x="1320" y="356" width="110" height="10" rx="5" fill="#789C81"/><rect x="1314" y="378" width="122" height="8" rx="4" fill="#9BB4A0"/></g><g filter="url(#shadow)"><rect x="500" y="120" width="600" height="560" rx="40" fill="#fff" stroke="#D6E1D7" stroke-width="3"/>
    <rect x="565" y="180" width="470" height="20" rx="10" fill="#294739"/>
    <g stroke="#D6E1D7" stroke-width="4"><line x1="800" y1="245" x2="800" y2="610"/><line x1="565" y1="310" x2="1035" y2="310"/><line x1="565" y1="400" x2="1035" y2="400"/><line x1="565" y1="490" x2="1035" y2="490"/></g>
    <g fill="#B7C9BB"><rect x="585" y="270" width="150" height="12" rx="6"/><rect x="865" y="270" width="130" height="12" rx="6"/><rect x="585" y="360" width="115" height="12" rx="6"/><rect x="865" y="360" width="160" height="12" rx="6"/><rect x="585" y="450" width="170" height="12" rx="6"/><rect x="865" y="450" width="105" height="12" rx="6"/><rect x="585" y="540" width="135" height="12" rx="6"/><rect x="865" y="540" width="155" height="12" rx="6"/></g>
    </g><circle cx="760" cy="360" r="20" fill="#4C8A58"/><path d="M751.0,360 l5.6000000000000005,5.6000000000000005 l12.6,-13.600000000000001" fill="none" stroke="#fff" stroke-width="5.6000000000000005" stroke-linecap="round" stroke-linejoin="round"/><circle cx="840" cy="450" r="20" fill="#4C8A58"/><path d="M831.0,450 l5.6000000000000005,5.6000000000000005 l12.6,-13.600000000000001" fill="none" stroke="#fff" stroke-width="5.6000000000000005" stroke-linecap="round" stroke-linejoin="round"/><circle cx="760" cy="540" r="20" fill="#4C8A58"/><path d="M751.0,540 l5.6000000000000005,5.6000000000000005 l12.6,-13.600000000000001" fill="none" stroke="#fff" stroke-width="5.6000000000000005" stroke-linecap="round" stroke-linejoin="round"/><g filter="url(#shadow)"><circle cx="800" cy="700" r="70" fill="#294739"/><path d="M762 700 H838 M800 662 V738" stroke="#fff" stroke-width="14" stroke-linecap="round"/></g></svg>