<svg xmlns="http://www.w3.org/2000/svg" width="1600" height="800" viewBox="0 0 1600 800" role="img">
    <defs>
    <linearGradient id="bg" x1="0" y1="0" x2="1" y2="1"><stop stop-color="#F7FAF5"/><stop offset="1" stop-color="#E7F0E6"/></linearGradient>
    <linearGradient id="card" x1="0" y1="0" x2="0" y2="1"><stop stop-color="#FFFFFF"/><stop offset="1" stop-color="#F7FAF7"/></linearGradient>
    <filter id="shadow" x="-20%" y="-20%" width="140%" height="150%"><feDropShadow dx="0" dy="18" stdDeviation="18" flood-color="#183126" flood-opacity=".12"/></filter>
    <filter id="soft" x="-20%" y="-20%" width="140%" height="140%"><feGaussianBlur stdDeviation="16"/></filter>
    </defs><rect width="1600" height="800" rx="48" fill="url(#bg)"/><circle cx="1520" cy="80" r="175" fill="#D9EDF2" opacity=".45"/><circle cx="80" cy="730" r="180" fill="#F1D6A5" opacity=".38"/><g filter="url(#shadow)"><rect x="157.4" y="230" width="95.2" height="48" rx="12" fill="#294739"/><rect x="120" y="268" width="170" height="302" rx="34" fill="#FFFFFF" stroke="#C9D8CC" stroke-width="3"/><rect x="142" y="342" width="126" height="90" rx="18" fill="#D9EDF2"/><rect x="160" y="366" width="90" height="10" rx="5" fill="#789C81"/><rect x="154" y="388" width="102" height="8" rx="4" fill="#9BB4A0"/></g><g filter="url(#shadow)"><rect x="1347.4" y="230" width="95.2" height="48" rx="12" fill="#294739"/><rect x="1310" y="268" width="170" height="302" rx="34" fill="#FFFFFF" stroke="#C9D8CC" stroke-width="3"/><rect x="1332" y="342" width="126" height="90" rx="18" fill="#F1D6A5"/><rect x="1350" y="366" width="90" height="10" rx="5" fill="#789C81"/><rect x="1344" y="388" width="102" height="8" rx="4" fill="#9BB4A0"/></g><g filter="url(#shadow)"><rect x="480" y="115" width="640" height="570" rx="42" fill="#fff" stroke="#D6E1D7" stroke-width="3"/>
    <rect x="545" y="175" width="510" height="20" rx="10" fill="#294739"/><rect x="545" y="225" width="360" height="12" rx="6" fill="#CBD8CD"/>
    <rect x="545" y="300" width="510" height="72" rx="20" fill="#EEF3EA"/><rect x="545" y="405" width="510" height="72" rx="20" fill="#F8F4E8"/><rect x="545" y="510" width="510" height="72" rx="20" fill="#E8F2F5"/>
    <circle cx="595" cy="336" r="20" fill="#4C8A58"/><circle cx="595" cy="441" r="20" fill="#D7AA50"/><circle cx="595" cy="546" r="20" fill="#315D68"/>
    <g fill="#A7BAAC"><rect x="640" y="326" width="300" height="12" rx="6"/><rect x="640" y="431" width="260" height="12" rx="6"/><rect x="640" y="536" width="330" height="12" rx="6"/></g>
    </g>
    <g stroke="#4C8A58" stroke-width="12" fill="none" stroke-linecap="round" stroke-linejoin="round"><path d="M350 400 H440 L480 360"/><path d="M1250 400 H1160 L1120 360"/></g><circle cx="1010" cy="612" r="26" fill="#4C8A58"/><path d="M998.3,612 l7.280000000000001,7.280000000000001 l16.38,-17.68" fill="none" stroke="#fff" stroke-width="7.280000000000001" stroke-linecap="round" stroke-linejoin="round"/></svg>